<mxfile host="app.diagrams.net" modified="2024-02-14T09:08:12.916Z" agent="Mozilla/5.0 (Windows NT 10.0; Win64; x64) AppleWebKit/537.36 (KHTML, like Gecko) Chrome/121.0.0.0 Safari/537.36 Edg/121.0.0.0" etag="2sSuBJaEa-uvlIRjha-5" version="23.1.4" type="device">
  <diagram id="C5RBs43oDa-KdzZeNtuy" name="Page-1">
    <mxGraphModel dx="2807" dy="1204" grid="1" gridSize="10" guides="1" tooltips="1" connect="1" arrows="1" fold="1" page="1" pageScale="1" pageWidth="827" pageHeight="1169" math="0" shadow="0">
      <root>
        <mxCell id="WIyWlLk6GJQsqaUBKTNV-0" />
        <mxCell id="WIyWlLk6GJQsqaUBKTNV-1" parent="WIyWlLk6GJQsqaUBKTNV-0" />
        <mxCell id="JN-tZdKUEvb5HZ7JXDSX-49" style="edgeStyle=orthogonalEdgeStyle;rounded=0;orthogonalLoop=1;jettySize=auto;html=1;entryX=0.5;entryY=0;entryDx=0;entryDy=0;" parent="WIyWlLk6GJQsqaUBKTNV-1" source="JN-tZdKUEvb5HZ7JXDSX-1" target="JN-tZdKUEvb5HZ7JXDSX-4" edge="1">
          <mxGeometry relative="1" as="geometry">
            <Array as="points">
              <mxPoint x="270" y="185" />
            </Array>
          </mxGeometry>
        </mxCell>
        <mxCell id="JN-tZdKUEvb5HZ7JXDSX-1" value="Alkalmazott" style="rounded=0;whiteSpace=wrap;html=1;" parent="WIyWlLk6GJQsqaUBKTNV-1" vertex="1">
          <mxGeometry x="110" y="155" width="120" height="60" as="geometry" />
        </mxCell>
        <mxCell id="JN-tZdKUEvb5HZ7JXDSX-50" style="edgeStyle=orthogonalEdgeStyle;rounded=0;orthogonalLoop=1;jettySize=auto;html=1;exitX=0;exitY=0.5;exitDx=0;exitDy=0;entryX=0.5;entryY=0;entryDx=0;entryDy=0;" parent="WIyWlLk6GJQsqaUBKTNV-1" source="JN-tZdKUEvb5HZ7JXDSX-2" target="JN-tZdKUEvb5HZ7JXDSX-4" edge="1">
          <mxGeometry relative="1" as="geometry" />
        </mxCell>
        <mxCell id="JN-tZdKUEvb5HZ7JXDSX-58" style="edgeStyle=orthogonalEdgeStyle;rounded=0;orthogonalLoop=1;jettySize=auto;html=1;" parent="WIyWlLk6GJQsqaUBKTNV-1" source="JN-tZdKUEvb5HZ7JXDSX-2" target="JN-tZdKUEvb5HZ7JXDSX-5" edge="1">
          <mxGeometry relative="1" as="geometry" />
        </mxCell>
        <mxCell id="JN-tZdKUEvb5HZ7JXDSX-2" value="Gyár" style="rounded=0;whiteSpace=wrap;html=1;" parent="WIyWlLk6GJQsqaUBKTNV-1" vertex="1">
          <mxGeometry x="480" y="165" width="120" height="60" as="geometry" />
        </mxCell>
        <mxCell id="JN-tZdKUEvb5HZ7JXDSX-59" style="edgeStyle=orthogonalEdgeStyle;rounded=0;orthogonalLoop=1;jettySize=auto;html=1;entryX=0.5;entryY=1;entryDx=0;entryDy=0;" parent="WIyWlLk6GJQsqaUBKTNV-1" source="JN-tZdKUEvb5HZ7JXDSX-3" target="JN-tZdKUEvb5HZ7JXDSX-5" edge="1">
          <mxGeometry relative="1" as="geometry" />
        </mxCell>
        <mxCell id="JN-tZdKUEvb5HZ7JXDSX-3" value="Szett" style="rounded=0;whiteSpace=wrap;html=1;" parent="WIyWlLk6GJQsqaUBKTNV-1" vertex="1">
          <mxGeometry x="310" y="780" width="120" height="60" as="geometry" />
        </mxCell>
        <mxCell id="JN-tZdKUEvb5HZ7JXDSX-4" value="Beosztás" style="rhombus;whiteSpace=wrap;html=1;" parent="WIyWlLk6GJQsqaUBKTNV-1" vertex="1">
          <mxGeometry x="230" y="450" width="80" height="80" as="geometry" />
        </mxCell>
        <mxCell id="JN-tZdKUEvb5HZ7JXDSX-5" value="GyártásiSor" style="rhombus;whiteSpace=wrap;html=1;" parent="WIyWlLk6GJQsqaUBKTNV-1" vertex="1">
          <mxGeometry x="400" y="450" width="80" height="80" as="geometry" />
        </mxCell>
        <mxCell id="JN-tZdKUEvb5HZ7JXDSX-15" style="edgeStyle=orthogonalEdgeStyle;rounded=0;orthogonalLoop=1;jettySize=auto;html=1;exitX=1;exitY=0.5;exitDx=0;exitDy=0;entryX=0;entryY=0.5;entryDx=0;entryDy=0;" parent="WIyWlLk6GJQsqaUBKTNV-1" source="JN-tZdKUEvb5HZ7JXDSX-6" target="JN-tZdKUEvb5HZ7JXDSX-1" edge="1">
          <mxGeometry relative="1" as="geometry" />
        </mxCell>
        <mxCell id="JN-tZdKUEvb5HZ7JXDSX-6" value="&lt;u&gt;TAJ szám&lt;/u&gt;" style="ellipse;whiteSpace=wrap;html=1;" parent="WIyWlLk6GJQsqaUBKTNV-1" vertex="1">
          <mxGeometry x="-50" y="100" width="100" height="50" as="geometry" />
        </mxCell>
        <mxCell id="JN-tZdKUEvb5HZ7JXDSX-18" style="edgeStyle=orthogonalEdgeStyle;rounded=0;orthogonalLoop=1;jettySize=auto;html=1;exitX=1;exitY=0.5;exitDx=0;exitDy=0;entryX=0.5;entryY=1;entryDx=0;entryDy=0;" parent="WIyWlLk6GJQsqaUBKTNV-1" source="JN-tZdKUEvb5HZ7JXDSX-7" target="JN-tZdKUEvb5HZ7JXDSX-1" edge="1">
          <mxGeometry relative="1" as="geometry" />
        </mxCell>
        <mxCell id="JN-tZdKUEvb5HZ7JXDSX-7" value="Név" style="ellipse;whiteSpace=wrap;html=1;aspect=fixed;" parent="WIyWlLk6GJQsqaUBKTNV-1" vertex="1">
          <mxGeometry x="30" y="320" width="100" height="50" as="geometry" />
        </mxCell>
        <mxCell id="JN-tZdKUEvb5HZ7JXDSX-8" value="Születési dátum" style="ellipse;whiteSpace=wrap;html=1;aspect=fixed;" parent="WIyWlLk6GJQsqaUBKTNV-1" vertex="1">
          <mxGeometry x="40" y="40" width="100" height="50" as="geometry" />
        </mxCell>
        <mxCell id="JN-tZdKUEvb5HZ7JXDSX-9" value="Email" style="ellipse;whiteSpace=wrap;html=1;aspect=fixed;" parent="WIyWlLk6GJQsqaUBKTNV-1" vertex="1">
          <mxGeometry x="-40" y="250" width="100" height="50" as="geometry" />
        </mxCell>
        <mxCell id="JN-tZdKUEvb5HZ7JXDSX-13" style="edgeStyle=orthogonalEdgeStyle;rounded=0;orthogonalLoop=1;jettySize=auto;html=1;exitX=0;exitY=1;exitDx=0;exitDy=0;entryX=0.75;entryY=0;entryDx=0;entryDy=0;" parent="WIyWlLk6GJQsqaUBKTNV-1" source="JN-tZdKUEvb5HZ7JXDSX-10" target="JN-tZdKUEvb5HZ7JXDSX-1" edge="1">
          <mxGeometry relative="1" as="geometry" />
        </mxCell>
        <mxCell id="JN-tZdKUEvb5HZ7JXDSX-10" value="Telefonszám" style="ellipse;whiteSpace=wrap;html=1;aspect=fixed;" parent="WIyWlLk6GJQsqaUBKTNV-1" vertex="1">
          <mxGeometry x="170" y="10" width="100" height="50" as="geometry" />
        </mxCell>
        <mxCell id="JN-tZdKUEvb5HZ7JXDSX-11" value="Fizetés" style="ellipse;whiteSpace=wrap;html=1;aspect=fixed;" parent="WIyWlLk6GJQsqaUBKTNV-1" vertex="1">
          <mxGeometry x="-60" y="170" width="100" height="50" as="geometry" />
        </mxCell>
        <mxCell id="JN-tZdKUEvb5HZ7JXDSX-12" style="edgeStyle=orthogonalEdgeStyle;rounded=0;orthogonalLoop=1;jettySize=auto;html=1;exitX=0.5;exitY=1;exitDx=0;exitDy=0;" parent="WIyWlLk6GJQsqaUBKTNV-1" source="JN-tZdKUEvb5HZ7JXDSX-6" target="JN-tZdKUEvb5HZ7JXDSX-6" edge="1">
          <mxGeometry relative="1" as="geometry" />
        </mxCell>
        <mxCell id="JN-tZdKUEvb5HZ7JXDSX-14" style="edgeStyle=orthogonalEdgeStyle;rounded=0;orthogonalLoop=1;jettySize=auto;html=1;exitX=0.5;exitY=1;exitDx=0;exitDy=0;entryX=0.167;entryY=0.083;entryDx=0;entryDy=0;entryPerimeter=0;" parent="WIyWlLk6GJQsqaUBKTNV-1" source="JN-tZdKUEvb5HZ7JXDSX-8" target="JN-tZdKUEvb5HZ7JXDSX-1" edge="1">
          <mxGeometry relative="1" as="geometry" />
        </mxCell>
        <mxCell id="JN-tZdKUEvb5HZ7JXDSX-16" style="edgeStyle=orthogonalEdgeStyle;rounded=0;orthogonalLoop=1;jettySize=auto;html=1;exitX=1;exitY=1;exitDx=0;exitDy=0;entryX=0;entryY=0.9;entryDx=0;entryDy=0;entryPerimeter=0;" parent="WIyWlLk6GJQsqaUBKTNV-1" source="JN-tZdKUEvb5HZ7JXDSX-11" target="JN-tZdKUEvb5HZ7JXDSX-1" edge="1">
          <mxGeometry relative="1" as="geometry" />
        </mxCell>
        <mxCell id="JN-tZdKUEvb5HZ7JXDSX-17" style="edgeStyle=orthogonalEdgeStyle;rounded=0;orthogonalLoop=1;jettySize=auto;html=1;exitX=1;exitY=0.5;exitDx=0;exitDy=0;entryX=0.167;entryY=0.967;entryDx=0;entryDy=0;entryPerimeter=0;" parent="WIyWlLk6GJQsqaUBKTNV-1" source="JN-tZdKUEvb5HZ7JXDSX-9" target="JN-tZdKUEvb5HZ7JXDSX-1" edge="1">
          <mxGeometry relative="1" as="geometry" />
        </mxCell>
        <mxCell id="JN-tZdKUEvb5HZ7JXDSX-19" value="&lt;u&gt;Név&lt;/u&gt;" style="ellipse;whiteSpace=wrap;html=1;" parent="WIyWlLk6GJQsqaUBKTNV-1" vertex="1">
          <mxGeometry x="480" y="30" width="100" height="50" as="geometry" />
        </mxCell>
        <mxCell id="JN-tZdKUEvb5HZ7JXDSX-28" style="edgeStyle=orthogonalEdgeStyle;rounded=0;orthogonalLoop=1;jettySize=auto;html=1;exitX=0;exitY=0.5;exitDx=0;exitDy=0;entryX=1;entryY=0.5;entryDx=0;entryDy=0;" parent="WIyWlLk6GJQsqaUBKTNV-1" source="JN-tZdKUEvb5HZ7JXDSX-20" target="JN-tZdKUEvb5HZ7JXDSX-2" edge="1">
          <mxGeometry relative="1" as="geometry" />
        </mxCell>
        <mxCell id="JN-tZdKUEvb5HZ7JXDSX-20" value="Település" style="ellipse;whiteSpace=wrap;html=1;" parent="WIyWlLk6GJQsqaUBKTNV-1" vertex="1">
          <mxGeometry x="660" y="165" width="100" height="50" as="geometry" />
        </mxCell>
        <mxCell id="JN-tZdKUEvb5HZ7JXDSX-27" style="edgeStyle=orthogonalEdgeStyle;rounded=0;orthogonalLoop=1;jettySize=auto;html=1;exitX=0;exitY=1;exitDx=0;exitDy=0;entryX=0.75;entryY=0;entryDx=0;entryDy=0;" parent="WIyWlLk6GJQsqaUBKTNV-1" source="JN-tZdKUEvb5HZ7JXDSX-21" target="JN-tZdKUEvb5HZ7JXDSX-2" edge="1">
          <mxGeometry relative="1" as="geometry" />
        </mxCell>
        <mxCell id="JN-tZdKUEvb5HZ7JXDSX-21" value="Építési Év" style="ellipse;whiteSpace=wrap;html=1;" parent="WIyWlLk6GJQsqaUBKTNV-1" vertex="1">
          <mxGeometry x="610" y="60" width="100" height="50" as="geometry" />
        </mxCell>
        <mxCell id="JN-tZdKUEvb5HZ7JXDSX-25" style="edgeStyle=orthogonalEdgeStyle;rounded=0;orthogonalLoop=1;jettySize=auto;html=1;exitX=1;exitY=1;exitDx=0;exitDy=0;entryX=0;entryY=0;entryDx=0;entryDy=0;" parent="WIyWlLk6GJQsqaUBKTNV-1" source="JN-tZdKUEvb5HZ7JXDSX-22" target="JN-tZdKUEvb5HZ7JXDSX-2" edge="1">
          <mxGeometry relative="1" as="geometry" />
        </mxCell>
        <mxCell id="JN-tZdKUEvb5HZ7JXDSX-22" value="ÁHM.&lt;br&gt;(Átlag Havi Megrendelés)" style="ellipse;whiteSpace=wrap;html=1;" parent="WIyWlLk6GJQsqaUBKTNV-1" vertex="1">
          <mxGeometry x="350" y="30" width="100" height="50" as="geometry" />
        </mxCell>
        <mxCell id="JN-tZdKUEvb5HZ7JXDSX-23" value="Bevétel" style="ellipse;whiteSpace=wrap;html=1;" parent="WIyWlLk6GJQsqaUBKTNV-1" vertex="1">
          <mxGeometry x="650" y="260" width="100" height="50" as="geometry" />
        </mxCell>
        <mxCell id="JN-tZdKUEvb5HZ7JXDSX-26" style="edgeStyle=orthogonalEdgeStyle;rounded=0;orthogonalLoop=1;jettySize=auto;html=1;exitX=0.5;exitY=1;exitDx=0;exitDy=0;entryX=0.392;entryY=0.05;entryDx=0;entryDy=0;entryPerimeter=0;" parent="WIyWlLk6GJQsqaUBKTNV-1" source="JN-tZdKUEvb5HZ7JXDSX-19" target="JN-tZdKUEvb5HZ7JXDSX-2" edge="1">
          <mxGeometry relative="1" as="geometry" />
        </mxCell>
        <mxCell id="JN-tZdKUEvb5HZ7JXDSX-29" style="edgeStyle=orthogonalEdgeStyle;rounded=0;orthogonalLoop=1;jettySize=auto;html=1;exitX=0;exitY=0;exitDx=0;exitDy=0;entryX=0.9;entryY=1;entryDx=0;entryDy=0;entryPerimeter=0;" parent="WIyWlLk6GJQsqaUBKTNV-1" source="JN-tZdKUEvb5HZ7JXDSX-23" target="JN-tZdKUEvb5HZ7JXDSX-2" edge="1">
          <mxGeometry relative="1" as="geometry" />
        </mxCell>
        <mxCell id="JN-tZdKUEvb5HZ7JXDSX-30" value="&lt;u&gt;Szériaszám&lt;/u&gt;" style="ellipse;whiteSpace=wrap;html=1;" parent="WIyWlLk6GJQsqaUBKTNV-1" vertex="1">
          <mxGeometry x="374" y="920" width="100" height="50" as="geometry" />
        </mxCell>
        <mxCell id="JN-tZdKUEvb5HZ7JXDSX-31" value="Név" style="ellipse;whiteSpace=wrap;html=1;" parent="WIyWlLk6GJQsqaUBKTNV-1" vertex="1">
          <mxGeometry x="520" y="810" width="100" height="50" as="geometry" />
        </mxCell>
        <mxCell id="JN-tZdKUEvb5HZ7JXDSX-42" style="edgeStyle=orthogonalEdgeStyle;rounded=0;orthogonalLoop=1;jettySize=auto;html=1;exitX=0;exitY=1;exitDx=0;exitDy=0;entryX=1;entryY=0.25;entryDx=0;entryDy=0;" parent="WIyWlLk6GJQsqaUBKTNV-1" source="JN-tZdKUEvb5HZ7JXDSX-32" target="JN-tZdKUEvb5HZ7JXDSX-3" edge="1">
          <mxGeometry relative="1" as="geometry" />
        </mxCell>
        <mxCell id="JN-tZdKUEvb5HZ7JXDSX-32" value="Kiadási Év" style="ellipse;whiteSpace=wrap;html=1;" parent="WIyWlLk6GJQsqaUBKTNV-1" vertex="1">
          <mxGeometry x="500" y="720" width="100" height="50" as="geometry" />
        </mxCell>
        <mxCell id="JN-tZdKUEvb5HZ7JXDSX-40" style="edgeStyle=orthogonalEdgeStyle;rounded=0;orthogonalLoop=1;jettySize=auto;html=1;exitX=0;exitY=0;exitDx=0;exitDy=0;entryX=1;entryY=1;entryDx=0;entryDy=0;" parent="WIyWlLk6GJQsqaUBKTNV-1" source="JN-tZdKUEvb5HZ7JXDSX-33" target="JN-tZdKUEvb5HZ7JXDSX-3" edge="1">
          <mxGeometry relative="1" as="geometry" />
        </mxCell>
        <mxCell id="JN-tZdKUEvb5HZ7JXDSX-33" value="Ár (Ft)" style="ellipse;whiteSpace=wrap;html=1;" parent="WIyWlLk6GJQsqaUBKTNV-1" vertex="1">
          <mxGeometry x="480" y="880" width="100" height="50" as="geometry" />
        </mxCell>
        <mxCell id="JN-tZdKUEvb5HZ7JXDSX-34" value="Téma" style="ellipse;whiteSpace=wrap;html=1;" parent="WIyWlLk6GJQsqaUBKTNV-1" vertex="1">
          <mxGeometry x="70" y="820" width="100" height="50" as="geometry" />
        </mxCell>
        <mxCell id="JN-tZdKUEvb5HZ7JXDSX-35" value="db" style="ellipse;whiteSpace=wrap;html=1;" parent="WIyWlLk6GJQsqaUBKTNV-1" vertex="1">
          <mxGeometry x="150" y="880" width="100" height="50" as="geometry" />
        </mxCell>
        <mxCell id="JN-tZdKUEvb5HZ7JXDSX-45" style="edgeStyle=orthogonalEdgeStyle;rounded=0;orthogonalLoop=1;jettySize=auto;html=1;entryX=0;entryY=0.25;entryDx=0;entryDy=0;" parent="WIyWlLk6GJQsqaUBKTNV-1" source="JN-tZdKUEvb5HZ7JXDSX-36" target="JN-tZdKUEvb5HZ7JXDSX-3" edge="1">
          <mxGeometry relative="1" as="geometry" />
        </mxCell>
        <mxCell id="JN-tZdKUEvb5HZ7JXDSX-36" value="Kor" style="ellipse;whiteSpace=wrap;html=1;" parent="WIyWlLk6GJQsqaUBKTNV-1" vertex="1">
          <mxGeometry x="90" y="740" width="100" height="50" as="geometry" />
        </mxCell>
        <mxCell id="JN-tZdKUEvb5HZ7JXDSX-37" value="Forgalomban" style="ellipse;whiteSpace=wrap;html=1;" parent="WIyWlLk6GJQsqaUBKTNV-1" vertex="1">
          <mxGeometry x="260" y="920" width="100" height="50" as="geometry" />
        </mxCell>
        <mxCell id="JN-tZdKUEvb5HZ7JXDSX-38" style="edgeStyle=orthogonalEdgeStyle;rounded=0;orthogonalLoop=1;jettySize=auto;html=1;exitX=0.5;exitY=0;exitDx=0;exitDy=0;entryX=0.168;entryY=0.997;entryDx=0;entryDy=0;entryPerimeter=0;" parent="WIyWlLk6GJQsqaUBKTNV-1" source="JN-tZdKUEvb5HZ7JXDSX-37" target="JN-tZdKUEvb5HZ7JXDSX-3" edge="1">
          <mxGeometry relative="1" as="geometry" />
        </mxCell>
        <mxCell id="JN-tZdKUEvb5HZ7JXDSX-39" style="edgeStyle=orthogonalEdgeStyle;rounded=0;orthogonalLoop=1;jettySize=auto;html=1;exitX=0.5;exitY=0;exitDx=0;exitDy=0;entryX=0.433;entryY=0.974;entryDx=0;entryDy=0;entryPerimeter=0;" parent="WIyWlLk6GJQsqaUBKTNV-1" source="JN-tZdKUEvb5HZ7JXDSX-30" target="JN-tZdKUEvb5HZ7JXDSX-3" edge="1">
          <mxGeometry relative="1" as="geometry" />
        </mxCell>
        <mxCell id="JN-tZdKUEvb5HZ7JXDSX-41" style="edgeStyle=orthogonalEdgeStyle;rounded=0;orthogonalLoop=1;jettySize=auto;html=1;exitX=0;exitY=0.5;exitDx=0;exitDy=0;entryX=1.019;entryY=0.664;entryDx=0;entryDy=0;entryPerimeter=0;" parent="WIyWlLk6GJQsqaUBKTNV-1" source="JN-tZdKUEvb5HZ7JXDSX-31" target="JN-tZdKUEvb5HZ7JXDSX-3" edge="1">
          <mxGeometry relative="1" as="geometry" />
        </mxCell>
        <mxCell id="JN-tZdKUEvb5HZ7JXDSX-43" style="edgeStyle=orthogonalEdgeStyle;rounded=0;orthogonalLoop=1;jettySize=auto;html=1;exitX=1;exitY=0;exitDx=0;exitDy=0;entryX=-0.01;entryY=0.871;entryDx=0;entryDy=0;entryPerimeter=0;" parent="WIyWlLk6GJQsqaUBKTNV-1" source="JN-tZdKUEvb5HZ7JXDSX-35" target="JN-tZdKUEvb5HZ7JXDSX-3" edge="1">
          <mxGeometry relative="1" as="geometry">
            <Array as="points">
              <mxPoint x="300" y="887" />
              <mxPoint x="300" y="832" />
            </Array>
          </mxGeometry>
        </mxCell>
        <mxCell id="JN-tZdKUEvb5HZ7JXDSX-44" style="edgeStyle=orthogonalEdgeStyle;rounded=0;orthogonalLoop=1;jettySize=auto;html=1;exitX=1;exitY=0.5;exitDx=0;exitDy=0;entryX=0.013;entryY=0.652;entryDx=0;entryDy=0;entryPerimeter=0;" parent="WIyWlLk6GJQsqaUBKTNV-1" source="JN-tZdKUEvb5HZ7JXDSX-34" target="JN-tZdKUEvb5HZ7JXDSX-3" edge="1">
          <mxGeometry relative="1" as="geometry" />
        </mxCell>
        <mxCell id="JN-tZdKUEvb5HZ7JXDSX-51" style="edgeStyle=orthogonalEdgeStyle;rounded=0;orthogonalLoop=1;jettySize=auto;html=1;entryX=0;entryY=0;entryDx=0;entryDy=0;" parent="WIyWlLk6GJQsqaUBKTNV-1" source="JN-tZdKUEvb5HZ7JXDSX-46" target="JN-tZdKUEvb5HZ7JXDSX-4" edge="1">
          <mxGeometry relative="1" as="geometry" />
        </mxCell>
        <mxCell id="JN-tZdKUEvb5HZ7JXDSX-46" value="Műszak Kezdet" style="ellipse;whiteSpace=wrap;html=1;" parent="WIyWlLk6GJQsqaUBKTNV-1" vertex="1">
          <mxGeometry x="110" y="420" width="100" height="50" as="geometry" />
        </mxCell>
        <mxCell id="JN-tZdKUEvb5HZ7JXDSX-47" value="Műszak Vége" style="ellipse;whiteSpace=wrap;html=1;" parent="WIyWlLk6GJQsqaUBKTNV-1" vertex="1">
          <mxGeometry x="90" y="490" width="100" height="50" as="geometry" />
        </mxCell>
        <mxCell id="JN-tZdKUEvb5HZ7JXDSX-53" style="edgeStyle=orthogonalEdgeStyle;rounded=0;orthogonalLoop=1;jettySize=auto;html=1;entryX=0;entryY=1;entryDx=0;entryDy=0;" parent="WIyWlLk6GJQsqaUBKTNV-1" source="JN-tZdKUEvb5HZ7JXDSX-48" target="JN-tZdKUEvb5HZ7JXDSX-4" edge="1">
          <mxGeometry relative="1" as="geometry" />
        </mxCell>
        <mxCell id="JN-tZdKUEvb5HZ7JXDSX-48" value="Túlóra" style="ellipse;whiteSpace=wrap;html=1;" parent="WIyWlLk6GJQsqaUBKTNV-1" vertex="1">
          <mxGeometry x="120" y="560" width="100" height="50" as="geometry" />
        </mxCell>
        <mxCell id="JN-tZdKUEvb5HZ7JXDSX-52" style="edgeStyle=orthogonalEdgeStyle;rounded=0;orthogonalLoop=1;jettySize=auto;html=1;entryX=0.079;entryY=0.66;entryDx=0;entryDy=0;entryPerimeter=0;" parent="WIyWlLk6GJQsqaUBKTNV-1" source="JN-tZdKUEvb5HZ7JXDSX-47" target="JN-tZdKUEvb5HZ7JXDSX-4" edge="1">
          <mxGeometry relative="1" as="geometry" />
        </mxCell>
        <mxCell id="JN-tZdKUEvb5HZ7JXDSX-57" style="edgeStyle=orthogonalEdgeStyle;rounded=0;orthogonalLoop=1;jettySize=auto;html=1;entryX=1;entryY=1;entryDx=0;entryDy=0;" parent="WIyWlLk6GJQsqaUBKTNV-1" source="JN-tZdKUEvb5HZ7JXDSX-54" target="JN-tZdKUEvb5HZ7JXDSX-5" edge="1">
          <mxGeometry relative="1" as="geometry" />
        </mxCell>
        <mxCell id="JN-tZdKUEvb5HZ7JXDSX-54" value="ÁHE" style="ellipse;whiteSpace=wrap;html=1;" parent="WIyWlLk6GJQsqaUBKTNV-1" vertex="1">
          <mxGeometry x="550" y="510" width="100" height="50" as="geometry" />
        </mxCell>
        <mxCell id="JN-tZdKUEvb5HZ7JXDSX-56" style="edgeStyle=orthogonalEdgeStyle;rounded=0;orthogonalLoop=1;jettySize=auto;html=1;entryX=1;entryY=0;entryDx=0;entryDy=0;" parent="WIyWlLk6GJQsqaUBKTNV-1" source="JN-tZdKUEvb5HZ7JXDSX-55" target="JN-tZdKUEvb5HZ7JXDSX-5" edge="1">
          <mxGeometry relative="1" as="geometry" />
        </mxCell>
        <mxCell id="JN-tZdKUEvb5HZ7JXDSX-55" value="Gyártási Ár" style="ellipse;whiteSpace=wrap;html=1;" parent="WIyWlLk6GJQsqaUBKTNV-1" vertex="1">
          <mxGeometry x="550" y="420" width="100" height="50" as="geometry" />
        </mxCell>
      </root>
    </mxGraphModel>
  </diagram>
</mxfile>
